<?xml version="1.0" standalone="no"?><!DOCTYPE svg PUBLIC "-//W3C//DTD SVG 1.1//EN" "http://www.w3.org/Graphics/SVG/1.1/DTD/svg11.dtd"><svg t="1770168857119" class="icon" viewBox="0 0 1024 1024" version="1.1" xmlns="http://www.w3.org/2000/svg" p-id="24808" xmlns:xlink="http://www.w3.org/1999/xlink" width="200" height="200"><path d="M397.1328 128.576A134.3744 134.3744 0 0 1 511.9744 64c46.8992 0 90.4064 24.4096 114.8544 64.576L1006.016 759.424a133.312 133.312 0 0 1 0.384 133.0816c-23.616 41.28-67.4304 66.9696-115.584 67.4944H132.6464a134.272 134.272 0 0 1-115.0976-67.4944c-23.6032-41.28-23.4624-91.9296 0.7424-133.696l378.8288-630.2336zM95.3984 804.0064a44.5696 44.5696 0 0 0 37.76 66.8544h757.1584a44.7488 44.7488 0 0 0 38.3616-22.5024c7.872-13.7472 7.8208-30.6432 0.2432-43.7376L550.2208 174.592a44.7616 44.7616 0 0 0-38.2464-21.4656c-15.5904 0-30.0672 8.1024-38.1824 21.376L95.3984 804.0064z" fill="#ffffff" p-id="24809"></path></svg>