<svg width="222" height="182" viewBox="0 0 222 182" fill="none" xmlns="http://www.w3.org/2000/svg">
<path opacity="0.5" d="M106.581 11.2515C106.581 9.50696 106.87 8.18793 107.449 7.29439C108.027 6.3966 108.866 5.9477 109.963 5.9477C112.057 5.9477 113.104 7.63691 113.104 11.0153C113.104 12.6833 112.808 13.9598 112.216 14.8448C111.629 15.7256 110.804 16.1659 109.74 16.1659C108.736 16.1659 107.957 15.7468 107.404 14.9086C106.855 14.0704 106.581 12.8513 106.581 11.2515ZM107.857 11.194C107.857 13.8193 108.523 15.132 109.855 15.132C111.165 15.132 111.821 13.7981 111.821 11.1302C111.821 8.36876 111.178 6.98804 109.893 6.98804C108.536 6.98804 107.857 8.39004 107.857 11.194ZM116.34 6.00514C116.863 6.00514 117.312 6.19236 117.686 6.5668C118.065 6.93698 118.254 7.38587 118.254 7.91349C118.254 8.44535 118.065 8.8985 117.686 9.27294C117.312 9.64312 116.863 9.82821 116.34 9.82821C115.816 9.82821 115.365 9.64312 114.986 9.27294C114.612 8.8985 114.425 8.44535 114.425 7.91349C114.425 7.38587 114.612 6.93698 114.986 6.5668C115.365 6.19236 115.816 6.00514 116.34 6.00514ZM116.34 8.97935C116.633 8.97935 116.884 8.8751 117.093 8.66661C117.301 8.45386 117.405 8.20282 117.405 7.91349C117.405 7.61989 117.299 7.37098 117.086 7.16674C116.878 6.95825 116.629 6.85401 116.34 6.85401C116.05 6.85401 115.801 6.95825 115.593 7.16674C115.384 7.37098 115.28 7.61989 115.28 7.91349C115.28 8.20282 115.382 8.45386 115.586 8.66661C115.795 8.8751 116.046 8.97935 116.34 8.97935Z" fill="white"/>
<path opacity="0.5" d="M6.30296 56.5313L3.06509 54.662L3.54434 53.8319L6.7822 55.7013L6.30296 56.5313ZM11.2911 63.3546L6.40952 60.5362L6.9459 59.6072L8.85344 60.7085L12.5859 54.2438L10.3019 53.6801L10.8732 52.6906L14.41 53.5598L9.9254 61.3274L11.8274 62.4255L11.2911 63.3546ZM13.7066 63.0047C14.0625 63.7086 14.5501 64.2394 15.1695 64.5969C15.7558 64.9355 16.3228 65.0454 16.8702 64.9265C17.4198 64.8041 17.8512 64.4716 18.1643 63.9292C18.4796 63.3832 18.5407 62.8541 18.3478 62.342C18.1584 61.832 17.7175 61.3771 17.0248 60.9772C16.6913 60.7846 16.2276 60.5511 15.6336 60.2765L18.1314 55.9502L22.3202 58.3687L21.7712 59.3197L18.5828 57.4789L17.1926 59.8867C17.5221 60.0524 17.7674 60.1818 17.9287 60.2749C18.8265 60.7933 19.3953 61.4247 19.635 62.169C19.8747 62.9133 19.764 63.6849 19.3027 64.4839C18.8266 65.3085 18.1722 65.8199 17.3393 66.0183C16.5065 66.2167 15.6155 66.0419 14.6663 65.4938C13.871 65.0347 13.3395 64.5715 13.0718 64.1042L13.7066 63.0047ZM25.854 60.2842C26.3047 60.5445 26.5983 60.929 26.7346 61.4377C26.8767 61.9448 26.8165 62.4256 26.5541 62.8801C26.2897 63.3382 25.9012 63.6343 25.3889 63.7685C24.8823 63.9011 24.4036 63.8373 23.9528 63.5771C23.5021 63.3168 23.2056 62.9331 23.0635 62.426C22.9272 61.9173 22.9913 61.4339 23.2558 60.9758C23.5182 60.5213 23.9027 60.2278 24.4092 60.0952C24.9216 59.961 25.4032 60.024 25.854 60.2842ZM24.3749 62.846C24.6278 62.992 24.8959 63.027 25.1791 62.9511C25.4645 62.8715 25.6791 62.7072 25.823 62.4579C25.969 62.2051 26.0012 61.9378 25.9195 61.6561C25.8436 61.3728 25.681 61.1593 25.4318 61.0154C25.1826 60.8715 24.9164 60.8375 24.6331 60.9134C24.352 60.9856 24.1384 61.1482 23.9924 61.4011C23.8486 61.6503 23.8117 61.9173 23.8818 62.2021C23.9577 62.4853 24.1221 62.7 24.3749 62.846Z" fill="white"/>
<path opacity="0.5" d="M205.921 66.7061L201.039 69.5245L200.503 68.5955L202.41 67.4942L198.678 61.0294L197.048 62.7255L196.476 61.736L198.997 59.1077L203.482 66.8753L205.384 65.7771L205.921 66.7061ZM206.825 64.4393C207.613 64.483 208.316 64.3261 208.936 63.9685C209.522 63.63 209.901 63.194 210.071 62.6604C210.24 62.1232 210.168 61.5834 209.855 61.0411C209.54 60.495 209.112 60.1775 208.572 60.0886C208.036 59.9975 207.421 60.152 206.728 60.5519C206.395 60.7444 205.961 61.0293 205.426 61.4064L202.928 57.0801L207.117 54.6616L207.666 55.6127L204.478 57.4535L205.868 59.8613C206.176 59.6589 206.411 59.5111 206.572 59.418C207.47 58.8996 208.301 58.7227 209.066 58.8873C209.83 59.0518 210.443 59.5336 210.904 60.3325C211.38 61.1571 211.496 61.9796 211.252 62.8C211.007 63.6205 210.41 64.3047 209.461 64.8527C208.666 65.3119 207.999 65.5406 207.46 65.5388L206.825 64.4393ZM210.543 52.5591C210.994 52.2989 211.473 52.2369 211.982 52.3732C212.492 52.5038 212.879 52.7962 213.141 53.2507C213.406 53.7088 213.468 54.1932 213.328 54.7041C213.189 55.2091 212.895 55.5917 212.444 55.852C211.993 56.1122 211.513 56.1771 211.003 56.0466C210.494 55.9103 210.107 55.6131 209.843 55.155C209.58 54.7005 209.518 54.2208 209.657 53.7158C209.797 53.2049 210.092 52.8194 210.543 52.5591ZM212.022 55.1209C212.275 54.9749 212.439 54.7602 212.515 54.477C212.589 54.1901 212.554 53.922 212.41 53.6728C212.264 53.4199 212.049 53.2584 211.764 53.1883C211.481 53.1124 211.214 53.1464 210.965 53.2903C210.716 53.4342 210.553 53.6477 210.477 53.931C210.399 54.2106 210.433 54.4768 210.579 54.7297C210.723 54.9789 210.936 55.1443 211.218 55.226C211.501 55.3019 211.769 55.2669 212.022 55.1209Z" fill="white"/>
<path opacity="0.5" d="M8.40099 176.273L5.14539 178.153L4.66352 177.318L7.91912 175.439L8.40099 176.273ZM10.8611 176.909C11.7087 177.024 12.501 176.869 13.2379 176.443C13.8275 176.103 14.2107 175.69 14.3874 175.205C14.5657 174.714 14.5145 174.225 14.2337 173.738C13.6082 172.655 12.5198 172.561 10.9684 173.457L10.2554 173.869L9.73843 172.973L10.4183 172.581C11.7928 171.787 12.1864 170.882 11.5992 169.865C11.0567 168.925 10.2604 168.759 9.21017 169.365C8.60953 169.712 8.16091 170.241 7.86431 170.953L7.27394 169.93C7.64683 169.282 8.20728 168.743 8.95532 168.311C9.68492 167.889 10.3814 167.743 11.0449 167.871C11.7062 167.995 12.2124 168.361 12.5634 168.969C13.2102 170.089 13.0549 171.139 12.0977 172.12L12.1105 172.142C12.7678 171.851 13.3827 171.788 13.955 171.954C14.5288 172.114 14.9753 172.47 15.2944 173.023C15.7391 173.793 15.8194 174.575 15.5353 175.367C15.2548 176.158 14.654 176.82 13.7328 177.351C12.9221 177.819 12.1808 178.046 11.5089 178.031L10.8611 176.909ZM15.6698 170.558C14.7975 169.048 14.3886 167.761 14.443 166.697C14.4952 165.631 14.9967 164.823 15.9474 164.274C17.7604 163.227 19.5114 164.167 21.2007 167.092C22.0346 168.537 22.4168 169.79 22.3471 170.852C22.2789 171.909 21.7843 172.703 20.8631 173.235C19.9934 173.737 19.1095 173.763 18.2114 173.314C17.3169 172.862 16.4697 171.944 15.6698 170.558ZM16.7465 169.87C18.0592 172.144 19.2922 172.948 20.4456 172.282C21.5805 171.627 21.481 170.144 20.1471 167.833C18.7664 165.442 17.5196 164.567 16.4068 165.21C15.2313 165.889 15.3445 167.442 16.7465 169.87ZM21.4979 161.136C21.9512 160.874 22.4335 160.812 22.945 160.949C23.458 161.08 23.8465 161.374 24.1103 161.831C24.3762 162.291 24.4388 162.779 24.2981 163.292C24.1589 163.8 23.8627 164.185 23.4094 164.446C22.9562 164.708 22.4731 164.773 21.96 164.642C21.4485 164.505 21.0598 164.206 20.7939 163.746C20.5301 163.289 20.4678 162.806 20.6069 162.299C20.7477 161.785 21.0447 161.397 21.4979 161.136ZM22.985 163.711C23.2393 163.565 23.4046 163.349 23.4809 163.064C23.5551 162.775 23.5198 162.506 23.3751 162.255C23.2284 162.001 23.0118 161.839 22.7254 161.768C22.4406 161.692 22.1729 161.726 21.9223 161.871C21.6718 162.015 21.5083 162.23 21.432 162.515C21.3536 162.796 21.3878 163.064 21.5345 163.318C21.6792 163.569 21.8932 163.735 22.1764 163.817C22.4612 163.893 22.7308 163.858 22.985 163.711Z" fill="white"/>
<path opacity="0.5" d="M197.117 168.149C197.441 168.941 197.972 169.549 198.709 169.975C199.298 170.315 199.847 170.44 200.356 170.351C200.871 170.26 201.268 169.971 201.549 169.485C202.174 168.401 201.712 167.412 200.16 166.516L199.447 166.104L199.964 165.209L200.644 165.601C202.018 166.395 202.999 166.283 203.586 165.266C204.129 164.327 203.875 163.554 202.825 162.947C202.224 162.601 201.542 162.477 200.777 162.576L201.367 161.553C202.115 161.552 202.862 161.768 203.61 162.2C204.34 162.621 204.815 163.151 205.036 163.789C205.259 164.424 205.195 165.045 204.844 165.653C204.197 166.774 203.21 167.164 201.883 166.825L201.87 166.847C202.451 167.271 202.813 167.772 202.955 168.351C203.104 168.928 203.018 169.493 202.699 170.045C202.254 170.816 201.618 171.276 200.789 171.426C199.964 171.579 199.091 171.389 198.17 170.857C197.359 170.389 196.792 169.861 196.469 169.271L197.117 168.149ZM205.021 169.138C205.893 167.627 206.803 166.63 207.751 166.145C208.701 165.657 209.652 165.687 210.602 166.236C212.415 167.283 212.477 169.269 210.788 172.195C209.954 173.64 209.06 174.597 208.105 175.068C207.156 175.537 206.221 175.506 205.3 174.974C204.43 174.472 203.965 173.72 203.906 172.717C203.849 171.717 204.221 170.524 205.021 169.138ZM206.155 169.727C204.843 172 204.763 173.47 205.916 174.136C207.051 174.791 208.286 173.964 209.62 171.653C211 169.262 211.134 167.745 210.022 167.102C208.846 166.424 207.557 167.298 206.155 169.727ZM216.096 169.474C216.549 169.736 216.844 170.122 216.981 170.634C217.124 171.144 217.063 171.627 216.8 172.084C216.534 172.545 216.143 172.843 215.628 172.977C215.119 173.111 214.637 173.047 214.184 172.785C213.731 172.523 213.433 172.138 213.29 171.628C213.153 171.116 213.217 170.63 213.483 170.169C213.747 169.713 214.134 169.417 214.643 169.284C215.158 169.149 215.642 169.212 216.096 169.474ZM214.608 172.05C214.863 172.197 215.132 172.232 215.417 172.156C215.704 172.076 215.92 171.91 216.064 171.66C216.211 171.405 216.244 171.137 216.161 170.853C216.085 170.569 215.922 170.354 215.671 170.209C215.421 170.065 215.153 170.03 214.868 170.107C214.585 170.179 214.371 170.343 214.224 170.597C214.079 170.848 214.042 171.116 214.113 171.402C214.189 171.687 214.354 171.903 214.608 172.05Z" fill="white"/>
<path d="M81.1657 31.137L82.5338 34.8957" stroke="#606166" stroke-width="0.5" stroke-linecap="round"/>
<path d="M75.4395 33.4502L77.0664 37.1044" stroke="#606166" stroke-width="0.5" stroke-linecap="round"/>
<path d="M69.8885 36.1575L71.7664 39.6893" stroke="#606166" stroke-width="0.5" stroke-linecap="round"/>
<path d="M64.54 39.2456L66.6597 42.6378" stroke="#606166" stroke-width="0.5" stroke-linecap="round"/>
<path d="M59.4199 42.699L61.771 45.935" stroke="#606166" stroke-width="0.5" stroke-linecap="round"/>
<path d="M54.553 46.5012L57.1242 49.5654" stroke="#606166" stroke-width="0.5" stroke-linecap="round"/>
<path d="M49.9636 50.6338L52.7423 53.5111" stroke="#606166" stroke-width="0.5" stroke-linecap="round"/>
<path d="M45.6734 55.0764L48.646 57.7529" stroke="#606166" stroke-width="0.5" stroke-linecap="round"/>
<path d="M41.7036 59.8076L44.8556 62.2703" stroke="#606166" stroke-width="0.5" stroke-linecap="round"/>
<path d="M38.0734 64.8042L41.3896 67.041" stroke="#606166" stroke-width="0.5" stroke-linecap="round"/>
<path d="M34.8007 70.0415L45.193 76.0415" stroke="#606166" stroke-linecap="round"/>
<path d="M31.9014 75.4946L35.4965 77.2481" stroke="#606166" stroke-width="0.5" stroke-linecap="round"/>
<path d="M29.3894 81.1367L33.0981 82.6351" stroke="#606166" stroke-width="0.5" stroke-linecap="round"/>
<path d="M27.2771 86.9402L31.0813 88.1763" stroke="#606166" stroke-width="0.5" stroke-linecap="round"/>
<path d="M25.5747 92.877L29.4559 93.8446" stroke="#606166" stroke-width="0.5" stroke-linecap="round"/>
<path d="M24.2906 98.918L28.2298 99.6126" stroke="#606166" stroke-width="0.5" stroke-linecap="round"/>
<path d="M23.4309 105.034L27.409 105.452" stroke="#606166" stroke-width="0.5" stroke-linecap="round"/>
<path d="M23.0001 111.195L26.9977 111.334" stroke="#606166" stroke-width="0.5" stroke-linecap="round"/>
<path d="M23.0001 117.371L26.9977 117.231" stroke="#606166" stroke-width="0.5" stroke-linecap="round"/>
<path d="M23.4309 123.532L27.409 123.114" stroke="#606166" stroke-width="0.5" stroke-linecap="round"/>
<path d="M24.2906 129.648L28.2298 128.953" stroke="#606166" stroke-width="0.5" stroke-linecap="round"/>
<path d="M25.5747 135.688L29.4559 134.721" stroke="#606166" stroke-width="0.5" stroke-linecap="round"/>
<path d="M27.2771 141.625L31.0813 140.389" stroke="#606166" stroke-width="0.5" stroke-linecap="round"/>
<path d="M29.3894 147.429L33.0981 145.93" stroke="#606166" stroke-width="0.5" stroke-linecap="round"/>
<path d="M31.9014 153.071L35.4965 151.317" stroke="#606166" stroke-width="0.5" stroke-linecap="round"/>
<path d="M34.801 158.524L45.1933 152.524" stroke="#606166" stroke-linecap="round"/>
<path d="M111 26V38" stroke="#606166" stroke-linecap="round"/>
<path d="M105.31 26.325L105.589 30.3152" stroke="#606166" stroke-width="0.5" stroke-linecap="round"/>
<path d="M99.1676 26.9707L99.7243 30.9318" stroke="#606166" stroke-width="0.5" stroke-linecap="round"/>
<path d="M93.0854 28.043L93.917 31.9556" stroke="#606166" stroke-width="0.5" stroke-linecap="round"/>
<path d="M87.0928 29.5369L88.1953 33.3819" stroke="#606166" stroke-width="0.5" stroke-linecap="round"/>
<path d="M140.423 30.8118L139.055 34.5705" stroke="#606166" stroke-width="0.5" stroke-linecap="round"/>
<path d="M146.149 33.125L144.522 36.7792" stroke="#606166" stroke-width="0.5" stroke-linecap="round"/>
<path d="M151.7 35.8323L149.822 39.3641" stroke="#606166" stroke-width="0.5" stroke-linecap="round"/>
<path d="M157.049 38.9204L154.929 42.3126" stroke="#606166" stroke-width="0.5" stroke-linecap="round"/>
<path d="M162.169 42.3738L159.818 45.6098" stroke="#606166" stroke-width="0.5" stroke-linecap="round"/>
<path d="M167.036 46.176L164.464 49.2402" stroke="#606166" stroke-width="0.5" stroke-linecap="round"/>
<path d="M171.625 50.3086L168.846 53.186" stroke="#606166" stroke-width="0.5" stroke-linecap="round"/>
<path d="M175.915 54.7512L172.943 57.4277" stroke="#606166" stroke-width="0.5" stroke-linecap="round"/>
<path d="M179.885 59.4824L176.733 61.9451" stroke="#606166" stroke-width="0.5" stroke-linecap="round"/>
<path d="M183.515 64.479L180.199 66.7158" stroke="#606166" stroke-width="0.5" stroke-linecap="round"/>
<path d="M186.788 69.7163L176.396 75.7163" stroke="#606166" stroke-linecap="round"/>
<path d="M189.687 75.1694L186.092 76.9229" stroke="#606166" stroke-width="0.5" stroke-linecap="round"/>
<path d="M192.199 80.8115L188.49 82.3099" stroke="#606166" stroke-width="0.5" stroke-linecap="round"/>
<path d="M194.312 86.615L190.507 87.8511" stroke="#606166" stroke-width="0.5" stroke-linecap="round"/>
<path d="M196.014 92.5518L192.133 93.5194" stroke="#606166" stroke-width="0.5" stroke-linecap="round"/>
<path d="M197.298 98.5928L193.359 99.2874" stroke="#606166" stroke-width="0.5" stroke-linecap="round"/>
<path d="M198.158 104.709L194.18 105.127" stroke="#606166" stroke-width="0.5" stroke-linecap="round"/>
<path d="M198.589 110.87L194.591 111.009" stroke="#606166" stroke-width="0.5" stroke-linecap="round"/>
<path d="M198.589 117.046L194.591 116.906" stroke="#606166" stroke-width="0.5" stroke-linecap="round"/>
<path d="M198.158 123.207L194.18 122.789" stroke="#606166" stroke-width="0.5" stroke-linecap="round"/>
<path d="M197.298 129.323L193.359 128.628" stroke="#606166" stroke-width="0.5" stroke-linecap="round"/>
<path d="M196.014 135.363L192.133 134.396" stroke="#606166" stroke-width="0.5" stroke-linecap="round"/>
<path d="M194.312 141.3L190.507 140.064" stroke="#606166" stroke-width="0.5" stroke-linecap="round"/>
<path d="M192.199 147.104L188.49 145.605" stroke="#606166" stroke-width="0.5" stroke-linecap="round"/>
<path d="M189.687 152.746L186.092 150.992" stroke="#606166" stroke-width="0.5" stroke-linecap="round"/>
<path d="M186.788 158.199L176.395 152.199" stroke="#606166" stroke-linecap="round"/>
<path d="M116.279 25.9998L116 29.99" stroke="#606166" stroke-width="0.5" stroke-linecap="round"/>
<path d="M122.421 26.6455L121.864 30.6066" stroke="#606166" stroke-width="0.5" stroke-linecap="round"/>
<path d="M128.503 27.7178L127.672 31.6304" stroke="#606166" stroke-width="0.5" stroke-linecap="round"/>
<path d="M134.496 29.2117L133.393 33.0567" stroke="#606166" stroke-width="0.5" stroke-linecap="round"/>
</svg>
