<svg xmlns="http://www.w3.org/2000/svg" xmlns:xlink="http://www.w3.org/1999/xlink" width="32" height="32" viewBox="0 0 32 32"><defs><style>.a,.b{fill:#fff;}.b{stroke:#707070;opacity:0;}.c{clip-path:url(#a);}.d{stroke:none;}.e{fill:none;}</style><clipPath id="a"><rect class="a" width="30.105" height="24.853"/></clipPath></defs><g transform="translate(485.504 1916.504)"><g class="b" transform="translate(-485.504 -1916.504)"><rect class="d" width="32" height="32"/><rect class="e" x="0.5" y="0.5" width="31" height="31"/></g><g transform="translate(-1491.557 -2992.522)"><g transform="translate(1007 1079.646)"><g class="c" transform="translate(0 0)"><path class="a" d="M1036.622,1085.884a20.79,20.79,0,0,0-29.4,0,1.169,1.169,0,0,0,1.653,1.653,18.451,18.451,0,0,1,26.091,0,1.169,1.169,0,0,0,1.653-1.653Zm-24.99,5.028a1.169,1.169,0,0,0,1.653,1.653,12.213,12.213,0,0,1,17.27,0,1.169,1.169,0,1,0,1.653-1.653,14.552,14.552,0,0,0-20.576,0Zm16.188,5.333.006-.006a8.312,8.312,0,0,0-11.758,0,1.169,1.169,0,0,0,1.653,1.653,5.973,5.973,0,0,1,8.451,0l.006-.006a1.231,1.231,0,0,0,.088.1,1.169,1.169,0,1,0,1.653-1.653c-.036-.029-.068-.055-.1-.084Zm-7.62,6.609a1.754,1.754,0,1,0,1.754-1.754,1.754,1.754,0,0,0-1.754,1.754Zm0,0" transform="translate(-1006.885 -1079.791)"/></g></g></g></g></svg>