<svg xmlns="http://www.w3.org/2000/svg" width="32" height="32" viewBox="0 0 32 32"><defs><style>.a,.b{fill:#fff;}.a{stroke:#707070;opacity:0;}.c{fill:#0cf32b;}.d{stroke:none;}.e{fill:none;}</style></defs><g transform="translate(394 1900)"><g class="a" transform="translate(-394 -1900)"><rect class="d" width="32" height="32"/><rect class="e" x="0.5" y="0.5" width="31" height="31"/></g><g transform="translate(-390 -1896)"><path class="b" d="M1017.915,1201.415h-8.573a2.342,2.342,0,0,1-2.342-2.343v-9.885a2.342,2.342,0,0,1,2.342-2.342h8.573a2.342,2.342,0,0,1,2.342,2.342v9.885a2.342,2.342,0,0,1-2.342,2.343Zm-8.573-12.7a.469.469,0,0,0-.469.469v9.885a.468.468,0,0,0,.469.469h8.573a.468.468,0,0,0,.469-.469v-9.885a.469.469,0,0,0-.469-.469Zm0,0" transform="translate(-1007 -1181.598)"/><path class="b" d="M1080.609,1085.436H1074a1.406,1.406,0,0,1-1.406-1.405v-2.178a1.406,1.406,0,0,1,1.406-1.405h6.606a1.405,1.405,0,0,1,1.405,1.405v2.178a1.405,1.405,0,0,1-1.405,1.405Zm-6.137-1.874h5.669v-1.241h-5.669Zm19.208,18.739a.937.937,0,0,1-.937-.937v-12.6a2.67,2.67,0,0,0-5.317,0v8.175a5.363,5.363,0,0,1-5.364,5.364h-.8a4.959,4.959,0,0,1-4.942-4.943.937.937,0,0,1,1.874,0,3.079,3.079,0,0,0,3.068,3.069h.8a3.5,3.5,0,0,0,3.49-3.49v-8.175a4.544,4.544,0,0,1,9.088.023v12.579a.937.937,0,0,1-.96.937Zm0,0" transform="translate(-1070.677 -1078.315)"/><path class="b" d="M1147.937,1011.16a.937.937,0,0,1-.937-.937v-1.64a.937.937,0,1,1,1.874,0v1.64a.937.937,0,0,1-.937.937Z" transform="translate(-1142.901 -1007.646)"/><path class="b" d="M1256.734,1011.163a.937.937,0,0,1-.937-.937v-1.64a.937.937,0,0,1,1.874,0v1.64a.937.937,0,0,1-.937.937Z" transform="translate(-1248.512 -1007.65)"/><path class="c" d="M1132.11,1297.99a.937.937,0,0,1-.656-1.593l2.131-2.131h-2.014a.937.937,0,0,1-.656-1.593l3-3a.944.944,0,0,1,1.335,1.336l-1.382,1.382h1.991a.937.937,0,0,1,.656,1.593l-3.748,3.725a.937.937,0,0,1-.656.281Z" transform="translate(-1127.027 -1281.149)"/><path class="b" d="M1180.6,1582.837" transform="translate(-1175.515 -1565.995)"/></g></g></svg>