<svg xmlns="http://www.w3.org/2000/svg" width="32" height="32" viewBox="0 0 32 32"><defs><style>.a,.b,.c{fill:#fff;}.a{stroke:#707070;opacity:0;}.c{stroke:#fff;stroke-width:0.6px;}.d{stroke:none;}.e{fill:none;}</style></defs><g transform="translate(485.504 1916.504)"><g class="a" transform="translate(-485.504 -1916.504)"><rect class="d" width="32" height="32"/><rect class="e" x="0.5" y="0.5" width="31" height="31"/></g><g transform="translate(-481.876 -1912.876)"><path class="b" d="M1011.456,1013.039H1008v5.448l1.317,1.317v1.805h3.824V1019.8l1.317-1.317v-5.448Zm-2.955-4.393v3.962h5.455v-3.962Zm2.084,2.442h-.917v-.92h.917Zm2.2,0h-.917v-.92h.917Zm16.189,20.1v2.193H1032v-2.193Zm1.97,1.532h-.917v-.46h.917Zm-2.7-7.355v5.409h4.482v-5.409a1.032,1.032,0,0,0-1.031-1.031h-2.42a1.032,1.032,0,0,0-1.031,1.031Zm0,0" transform="translate(-1008 -1008.646)"/><path class="c" d="M1096.17,1148.817a5.3,5.3,0,0,1-5.291-5.288V1139.7h1.442v3.829a3.846,3.846,0,0,0,7.692,0v-8.236a5.294,5.294,0,0,1,5.291-5.288h.987a5.294,5.294,0,0,1,5.288,5.288v6.261h-1.443v-6.261a3.851,3.851,0,0,0-3.846-3.846h-.987a3.851,3.851,0,0,0-3.846,3.846v8.236a5.293,5.293,0,0,1-5.288,5.288Zm0,0" transform="translate(-1088.372 -1126.333)"/></g></g></svg>